<svg width="55" height="33" viewBox="0 0 55 33" fill="none" xmlns="http://www.w3.org/2000/svg">
<path d="M5.4086 3.42167L3.43986 3.42387L3.45212 14.4102L5.80758 14.4076C6.61618 14.4067 7.15514 14.3182 7.42448 14.1421C7.70553 13.966 7.89866 13.7607 8.00387 13.5262C8.33117 12.7876 8.49362 11.3401 8.49121 9.18386C8.48879 7.01589 8.37592 5.63906 8.15261 5.05337C7.94102 4.46767 7.65345 4.05198 7.28989 3.80629C6.92633 3.54888 6.29923 3.42067 5.4086 3.42167ZM6.28455 16.5164L3.45447 16.5196L3.4693 29.8086L6.24664 29.8055C7.10211 29.8046 7.72875 29.5226 8.12656 28.9597C8.52437 28.3967 8.75776 27.5176 8.82674 26.3222C8.89572 25.1268 8.92974 24.1072 8.9288 23.2635L8.92717 21.8045C8.92523 20.0701 8.74213 18.7578 8.37785 17.8676C8.02528 16.9656 7.32751 16.5152 6.28455 16.5164ZM0.818148 1.12406L5.33572 1.11901C7.18728 1.11695 8.52943 1.43186 9.36217 2.06374C10.2066 2.69561 10.7352 3.8083 10.9479 5.40182C11.0425 6.10484 11.0962 6.98368 11.1091 8.03836L11.1095 8.44265C11.1118 10.4466 10.9846 11.976 10.7279 13.031C10.4713 14.0859 9.93897 14.8776 9.13096 15.4058C10.0455 15.8501 10.6735 16.7283 11.0148 18.0404C11.3678 19.3408 11.5454 20.9754 11.5476 22.9441L11.5482 23.489C11.5047 26.5008 11.1204 28.6809 10.3953 30.0294C9.67027 31.3779 8.25892 32.0533 6.16126 32.0556L0.852672 32.0615L0.818148 1.12406ZM16.9017 0.70181L21.6653 0.696494L21.6691 4.08907L19.6736 11.5796L17.8103 11.5817L19.4017 4.2498L16.9056 4.25259L16.9017 0.70181ZM26.9041 1.09495L35.0252 1.08588L35.0274 3.12494L29.5079 3.1311L29.5204 14.3635L34.7411 14.3577L34.7435 16.4495L29.5228 16.4553L29.5402 32.0295L26.9386 32.0324L26.9041 1.09495ZM39.3494 1.08106L41.9685 1.07813L42.003 32.0156L39.3839 32.0185L39.3494 1.08106ZM45.783 1.07388L54.5193 1.06413L54.5216 3.10319L51.6212 3.10643L51.6534 32.0048L49.0519 32.0077L49.0196 3.10933L45.7852 3.11294L45.783 1.07388Z" fill="#F5F5F5"/>
</svg>
