<svg width="32" height="32" viewBox="0 0 32 32" fill="none" xmlns="http://www.w3.org/2000/svg">
<path d="M5.33331 8C5.33331 7.64638 5.47379 7.30724 5.72384 7.05719C5.97389 6.80714 6.31302 6.66667 6.66665 6.66667H25.3333C25.6869 6.66667 26.0261 6.80714 26.2761 7.05719C26.5262 7.30724 26.6666 7.64638 26.6666 8C26.6666 8.35362 26.5262 8.69276 26.2761 8.94281C26.0261 9.19286 25.6869 9.33333 25.3333 9.33333H6.66665C6.31302 9.33333 5.97389 9.19286 5.72384 8.94281C5.47379 8.69276 5.33331 8.35362 5.33331 8ZM5.33331 16C5.33331 15.6464 5.47379 15.3072 5.72384 15.0572C5.97389 14.8071 6.31302 14.6667 6.66665 14.6667H25.3333C25.6869 14.6667 26.0261 14.8071 26.2761 15.0572C26.5262 15.3072 26.6666 15.6464 26.6666 16C26.6666 16.3536 26.5262 16.6928 26.2761 16.9428C26.0261 17.1929 25.6869 17.3333 25.3333 17.3333H6.66665C6.31302 17.3333 5.97389 17.1929 5.72384 16.9428C5.47379 16.6928 5.33331 16.3536 5.33331 16ZM6.66665 22.6667C6.31302 22.6667 5.97389 22.8071 5.72384 23.0572C5.47379 23.3072 5.33331 23.6464 5.33331 24C5.33331 24.3536 5.47379 24.6928 5.72384 24.9428C5.97389 25.1929 6.31302 25.3333 6.66665 25.3333H25.3333C25.6869 25.3333 26.0261 25.1929 26.2761 24.9428C26.5262 24.6928 26.6666 24.3536 26.6666 24C26.6666 23.6464 26.5262 23.3072 26.2761 23.0572C26.0261 22.8071 25.6869 22.6667 25.3333 22.6667H6.66665Z" fill="#F5F5F5"/>
</svg>
