<svg width="24" height="24" viewBox="0 0 24 24" fill="none" xmlns="http://www.w3.org/2000/svg">
<path d="M7.97804 4C7.61293 3.99978 7.25204 4.07797 6.91976 4.22927C6.58749 4.38057 6.29157 4.60146 6.05204 4.877C4.23304 6.7 3.69904 8.751 4.15304 10.814C4.59304 12.809 5.93104 14.707 7.60904 16.386C9.28904 18.065 11.186 19.404 13.179 19.845C15.241 20.301 17.294 19.772 19.119 17.96C19.3956 17.7201 19.6174 17.4237 19.7695 17.0906C19.9215 16.7576 20.0002 16.3958 20.0003 16.0297C20.0004 15.6636 19.9219 15.3018 19.77 14.9687C19.6181 14.6356 19.3965 14.339 19.12 14.099L17.91 12.889C17.4057 12.3852 16.7219 12.1022 16.009 12.1022C15.2962 12.1022 14.6124 12.3852 14.108 12.889L13.491 13.507C13.4162 13.5819 13.3273 13.6413 13.2295 13.6818C13.1317 13.7223 13.0269 13.7431 12.921 13.7431C12.8152 13.7431 12.7103 13.7223 12.6125 13.6818C12.5147 13.6413 12.4259 13.5819 12.351 13.507L10.497 11.652C10.3461 11.5007 10.2613 11.2957 10.2613 11.082C10.2613 10.8683 10.3461 10.6633 10.497 10.512L11.115 9.892C11.6191 9.38758 11.9023 8.70363 11.9023 7.9905C11.9023 7.27737 11.6191 6.59342 11.115 6.089L9.90504 4.878C9.66506 4.60266 9.36894 4.38185 9.03658 4.23041C8.70421 4.07898 8.34328 4.00041 7.97804 4Z" fill="#016678"/>
</svg>
